{
	"patcher" : 	{
		"fileversion" : 1,
		"appversion" : 		{
			"major" : 7,
			"minor" : 3,
			"revision" : 5,
			"architecture" : "x86",
			"modernui" : 1
		}
,
		"rect" : [ 606.0, 246.0, 271.0, 480.0 ],
		"bglocked" : 0,
		"openinpresentation" : 0,
		"default_fontsize" : 12.0,
		"default_fontface" : 0,
		"default_fontname" : "Arial",
		"gridonopen" : 1,
		"gridsize" : [ 15.0, 15.0 ],
		"gridsnaponopen" : 1,
		"objectsnaponopen" : 1,
		"statusbarvisible" : 2,
		"toolbarvisible" : 1,
		"lefttoolbarpinned" : 0,
		"toptoolbarpinned" : 0,
		"righttoolbarpinned" : 0,
		"bottomtoolbarpinned" : 0,
		"toolbars_unpinned_last_save" : 0,
		"tallnewobj" : 0,
		"boxanimatetime" : 200,
		"enablehscroll" : 1,
		"enablevscroll" : 1,
		"devicewidth" : 0.0,
		"description" : "",
		"digest" : "",
		"tags" : "",
		"style" : "",
		"subpatcher_template" : "",
		"boxes" : [ 			{
				"box" : 				{
					"id" : "obj-13",
					"maxclass" : "newobj",
					"numinlets" : 1,
					"numoutlets" : 0,
					"patching_rect" : [ 189.0, 218.0, 34.0, 22.0 ],
					"style" : "",
					"text" : "print"
				}

			}
, 			{
				"box" : 				{
					"id" : "obj-10",
					"maxclass" : "newobj",
					"numinlets" : 2,
					"numoutlets" : 2,
					"outlettype" : [ "bang", "" ],
					"patching_rect" : [ 203.5, 404.0, 59.0, 22.0 ],
					"style" : "",
					"text" : "sel poem"
				}

			}
, 			{
				"box" : 				{
					"id" : "obj-9",
					"maxclass" : "newobj",
					"numinlets" : 2,
					"numoutlets" : 2,
					"outlettype" : [ "", "" ],
					"patching_rect" : [ 203.5, 363.0, 90.0, 22.0 ],
					"style" : "",
					"text" : "route compose"
				}

			}
, 			{
				"box" : 				{
					"id" : "obj-8",
					"maxclass" : "message",
					"numinlets" : 2,
					"numoutlets" : 1,
					"outlettype" : [ "" ],
					"patching_rect" : [ 321.0, 396.0, 223.0, 22.0 ],
					"style" : "",
					"text" : "open /Users/lol/Desktop/newCliclickTest"
				}

			}
, 			{
				"box" : 				{
					"id" : "obj-5",
					"maxclass" : "newobj",
					"numinlets" : 1,
					"numoutlets" : 2,
					"outlettype" : [ "", "bang" ],
					"patching_rect" : [ 307.0, 432.0, 35.0, 22.0 ],
					"style" : "",
					"text" : "shell"
				}

			}
, 			{
				"box" : 				{
					"id" : "obj-2",
					"maxclass" : "newobj",
					"numinlets" : 1,
					"numoutlets" : 1,
					"outlettype" : [ "" ],
					"patching_rect" : [ 256.0, 322.0, 99.0, 22.0 ],
					"style" : "",
					"text" : "udpreceive 8083"
				}

			}
, 			{
				"box" : 				{
					"id" : "obj-1",
					"maxclass" : "newobj",
					"numinlets" : 1,
					"numoutlets" : 5,
					"outlettype" : [ "", "signal", "signal", "signal", "signal" ],
					"patching_rect" : [ 170.0, 170.0, 77.0, 22.0 ],
					"style" : "",
					"text" : "gibberwocky"
				}

			}
 ],
		"lines" : [ 			{
				"patchline" : 				{
					"destination" : [ "obj-13", 0 ],
					"source" : [ "obj-1", 0 ]
				}

			}
, 			{
				"patchline" : 				{
					"destination" : [ "obj-8", 0 ],
					"source" : [ "obj-10", 0 ]
				}

			}
, 			{
				"patchline" : 				{
					"destination" : [ "obj-9", 0 ],
					"source" : [ "obj-2", 0 ]
				}

			}
, 			{
				"patchline" : 				{
					"destination" : [ "obj-5", 0 ],
					"source" : [ "obj-8", 0 ]
				}

			}
, 			{
				"patchline" : 				{
					"destination" : [ "obj-10", 0 ],
					"source" : [ "obj-9", 0 ]
				}

			}
 ],
		"dependency_cache" : [ 			{
				"name" : "gibberwocky.maxpat",
				"bootpath" : "~/Documents/Max 7/Packages/gibberwocky.max-master/patchers",
				"patcherrelativepath" : "../../../Documents/Max 7/Packages/gibberwocky.max-master/patchers",
				"type" : "JSON",
				"implicit" : 1
			}
, 			{
				"name" : "gibbergen3.maxpat",
				"bootpath" : "~/Documents/Max 7/Packages/gibberwocky.max-master/patchers",
				"patcherrelativepath" : "../../../Documents/Max 7/Packages/gibberwocky.max-master/patchers",
				"type" : "JSON",
				"implicit" : 1
			}
, 			{
				"name" : "gibbergen2.maxpat",
				"bootpath" : "~/Documents/Max 7/Packages/gibberwocky.max-master/patchers",
				"patcherrelativepath" : "../../../Documents/Max 7/Packages/gibberwocky.max-master/patchers",
				"type" : "JSON",
				"implicit" : 1
			}
, 			{
				"name" : "gibbergen1.maxpat",
				"bootpath" : "~/Documents/Max 7/Packages/gibberwocky.max-master/patchers",
				"patcherrelativepath" : "../../../Documents/Max 7/Packages/gibberwocky.max-master/patchers",
				"type" : "JSON",
				"implicit" : 1
			}
, 			{
				"name" : "gibbergen0.maxpat",
				"bootpath" : "~/Documents/Max 7/Packages/gibberwocky.max-master/patchers",
				"patcherrelativepath" : "../../../Documents/Max 7/Packages/gibberwocky.max-master/patchers",
				"type" : "JSON",
				"implicit" : 1
			}
, 			{
				"name" : "gibberwocky_main.js",
				"bootpath" : "~/Documents/Max 7/Packages/gibberwocky.max-master/javascript",
				"patcherrelativepath" : "../../../Documents/Max 7/Packages/gibberwocky.max-master/javascript",
				"type" : "TEXT",
				"implicit" : 1
			}
, 			{
				"name" : "ws.mxo",
				"type" : "iLaX"
			}
, 			{
				"name" : "shell.mxo",
				"type" : "iLaX"
			}
 ],
		"autosave" : 0
	}

}
