{
	"patcher" : 	{
		"fileversion" : 1,
		"appversion" : 		{
			"major" : 7,
			"minor" : 3,
			"revision" : 5,
			"architecture" : "x86",
			"modernui" : 1
		}
,
		"rect" : [ 89.0, 78.0, 731.0, 588.0 ],
		"bglocked" : 0,
		"openinpresentation" : 0,
		"default_fontsize" : 12.0,
		"default_fontface" : 0,
		"default_fontname" : "Arial",
		"gridonopen" : 1,
		"gridsize" : [ 15.0, 15.0 ],
		"gridsnaponopen" : 1,
		"objectsnaponopen" : 1,
		"statusbarvisible" : 2,
		"toolbarvisible" : 1,
		"lefttoolbarpinned" : 0,
		"toptoolbarpinned" : 0,
		"righttoolbarpinned" : 0,
		"bottomtoolbarpinned" : 0,
		"toolbars_unpinned_last_save" : 0,
		"tallnewobj" : 0,
		"boxanimatetime" : 200,
		"enablehscroll" : 1,
		"enablevscroll" : 1,
		"devicewidth" : 0.0,
		"description" : "",
		"digest" : "",
		"tags" : "",
		"style" : "",
		"subpatcher_template" : "",
		"boxes" : [ 			{
				"box" : 				{
					"id" : "obj-26",
					"maxclass" : "toggle",
					"numinlets" : 1,
					"numoutlets" : 1,
					"outlettype" : [ "int" ],
					"parameter_enable" : 0,
					"patching_rect" : [ 102.0, 118.0, 24.0, 24.0 ],
					"style" : ""
				}

			}
, 			{
				"box" : 				{
					"id" : "obj-23",
					"maxclass" : "message",
					"numinlets" : 2,
					"numoutlets" : 1,
					"outlettype" : [ "" ],
					"patching_rect" : [ 9.0, 304.0, 37.0, 22.0 ],
					"style" : "",
					"text" : "open"
				}

			}
, 			{
				"box" : 				{
					"id" : "obj-21",
					"maxclass" : "toggle",
					"numinlets" : 1,
					"numoutlets" : 1,
					"outlettype" : [ "int" ],
					"parameter_enable" : 0,
					"patching_rect" : [ 22.0, 229.0, 24.0, 24.0 ],
					"style" : ""
				}

			}
, 			{
				"box" : 				{
					"id" : "obj-19",
					"maxclass" : "message",
					"numinlets" : 2,
					"numoutlets" : 1,
					"outlettype" : [ "" ],
					"patching_rect" : [ 17.0, 177.0, 95.0, 22.0 ],
					"style" : "",
					"text" : "open poem.wav"
				}

			}
, 			{
				"box" : 				{
					"id" : "obj-17",
					"maxclass" : "newobj",
					"numinlets" : 1,
					"numoutlets" : 1,
					"outlettype" : [ "bang" ],
					"patching_rect" : [ 17.0, 144.0, 60.0, 22.0 ],
					"style" : "",
					"text" : "loadbang"
				}

			}
, 			{
				"box" : 				{
					"id" : "obj-16",
					"maxclass" : "newobj",
					"numinlets" : 2,
					"numoutlets" : 2,
					"outlettype" : [ "signal", "bang" ],
					"patching_rect" : [ 97.0, 237.0, 49.0, 22.0 ],
					"saved_object_attributes" : 					{
						"basictuning" : 440,
						"followglobaltempo" : 0,
						"formantcorrection" : 0,
						"mode" : "basic",
						"originallength" : [ 5840.0, "ticks" ],
						"originaltempo" : 120.0,
						"pitchcorrection" : 0,
						"quality" : "basic",
						"timestretch" : [ 0 ]
					}
,
					"style" : "",
					"text" : "sfplay~"
				}

			}
, 			{
				"box" : 				{
					"id" : "obj-15",
					"maxclass" : "toggle",
					"numinlets" : 1,
					"numoutlets" : 1,
					"outlettype" : [ "int" ],
					"parameter_enable" : 0,
					"patching_rect" : [ 160.0, 547.0, 24.0, 24.0 ],
					"style" : ""
				}

			}
, 			{
				"box" : 				{
					"id" : "obj-12",
					"maxclass" : "newobj",
					"numinlets" : 2,
					"numoutlets" : 0,
					"patching_rect" : [ 205.0, 621.0, 37.0, 22.0 ],
					"style" : "",
					"text" : "dac~"
				}

			}
, 			{
				"box" : 				{
					"id" : "obj-11",
					"maxclass" : "live.gain~",
					"numinlets" : 2,
					"numoutlets" : 5,
					"outlettype" : [ "signal", "signal", "", "float", "list" ],
					"parameter_enable" : 1,
					"patching_rect" : [ 300.0, 496.0, 88.0, 108.0 ],
					"saved_attribute_attributes" : 					{
						"valueof" : 						{
							"parameter_longname" : "live.gain~",
							"parameter_shortname" : "live.gain~",
							"parameter_type" : 0,
							"parameter_mmin" : -70.0,
							"parameter_mmax" : 6.0,
							"parameter_initial" : [ 0.0 ],
							"parameter_unitstyle" : 4
						}

					}
,
					"varname" : "live.gain~"
				}

			}
, 			{
				"box" : 				{
					"autosave" : 1,
					"bgmode" : 1,
					"border" : 0,
					"clickthrough" : 0,
					"enablehscroll" : 0,
					"enablevscroll" : 0,
					"id" : "obj-7",
					"lockeddragscroll" : 0,
					"maxclass" : "newobj",
					"numinlets" : 3,
					"numoutlets" : 4,
					"offset" : [ 0.0, 0.0 ],
					"outlettype" : [ "signal", "signal", "", "" ],
					"patching_rect" : [ 180.0, 280.0, 446.0, 196.0 ],
					"presentation_rect" : [ 0.0, 0.0, 446.0, 196.0 ],
					"saved_attribute_attributes" : 					{
						"valueof" : 						{
							"parameter_invisible" : 1,
							"parameter_longname" : "amxd~",
							"parameter_shortname" : "amxd~",
							"parameter_type" : 3
						}

					}
,
					"saved_object_attributes" : 					{
						"annotation_name" : "",
						"parameter_enable" : 1,
						"patchername" : "Granular-to-go.amxd",
						"patchername_fallback" : "C74:/packages/Max for Live/patchers/Max Audio Effect/Granular-to-go/Granular-to-go.amxd"
					}
,
					"snapshot" : 					{
						"filetype" : "C74Snapshot",
						"version" : 2,
						"minorversion" : 0,
						"name" : "snapshotlist",
						"origin" : "max~",
						"type" : "list",
						"subtype" : "Undefined",
						"embed" : 1,
						"snapshot" : 						{
							"name" : "Granular-to-go.amxd",
							"origname" : "C74:/packages/Max for Live/patchers/Max Audio Effect/Granular-to-go/Granular-to-go.amxd",
							"valuedictionary" : 							{
								"parameter_values" : 								{
									"active_left" : 1.0,
									"active_right" : 1.0,
									"density" : 100.0,
									"grain_range" : 1568.0,
									"grain_size" : 491.0,
									"min_amp" : 0.0,
									"playback_speed" : 0.8,
									"playback_speed_range" : 0.4,
									"pulse_offset" : 5.0,
									"pulse_range" : 96.0,
									"randomize" : 0.0,
									"range" : 127.0,
									"wet_dry" : 100.0
								}

							}

						}
,
						"snapshotlist" : 						{
							"current_snapshot" : 0,
							"entries" : [ 								{
									"filetype" : "C74Snapshot",
									"version" : 2,
									"minorversion" : 0,
									"name" : "Granular-to-go.amxd",
									"origin" : "Granular-to-go.amxd",
									"type" : "amxd",
									"subtype" : "Undefined",
									"embed" : 0,
									"snapshot" : 									{
										"name" : "Granular-to-go.amxd",
										"origname" : "C74:/packages/Max for Live/patchers/Max Audio Effect/Granular-to-go/Granular-to-go.amxd",
										"valuedictionary" : 										{
											"parameter_values" : 											{
												"active_left" : 1.0,
												"active_right" : 1.0,
												"density" : 100.0,
												"grain_range" : 1568.0,
												"grain_size" : 491.0,
												"min_amp" : 0.0,
												"playback_speed" : 0.8,
												"playback_speed_range" : 0.4,
												"pulse_offset" : 5.0,
												"pulse_range" : 96.0,
												"randomize" : 0.0,
												"range" : 127.0,
												"wet_dry" : 100.0
											}

										}

									}
,
									"fileref" : 									{
										"name" : "Granular-to-go.amxd",
										"filename" : "Granular-to-go.amxd.maxsnap",
										"filepath" : "~/Documents/Max 7/Snapshots",
										"filepos" : -1,
										"snapshotfileid" : "613f58ef8b97703b1c2865358e589f38"
									}

								}
 ]
						}

					}
,
					"style" : "",
					"text" : "amxd~ Granular-to-go.amxd",
					"varname" : "amxd~",
					"viewvisibility" : 1
				}

			}
, 			{
				"box" : 				{
					"id" : "obj-4",
					"maxclass" : "message",
					"numinlets" : 2,
					"numoutlets" : 1,
					"outlettype" : [ "" ],
					"patching_rect" : [ 294.0, 103.0, 50.0, 22.0 ],
					"style" : "",
					"text" : "bang"
				}

			}
, 			{
				"box" : 				{
					"id" : "obj-13",
					"maxclass" : "newobj",
					"numinlets" : 1,
					"numoutlets" : 0,
					"patching_rect" : [ 17.0, 56.0, 34.0, 22.0 ],
					"style" : "",
					"text" : "print"
				}

			}
, 			{
				"box" : 				{
					"id" : "obj-10",
					"maxclass" : "newobj",
					"numinlets" : 2,
					"numoutlets" : 2,
					"outlettype" : [ "bang", "" ],
					"patching_rect" : [ 171.0, 95.0, 59.0, 22.0 ],
					"style" : "",
					"text" : "sel poem"
				}

			}
, 			{
				"box" : 				{
					"id" : "obj-9",
					"maxclass" : "newobj",
					"numinlets" : 2,
					"numoutlets" : 2,
					"outlettype" : [ "", "" ],
					"patching_rect" : [ 171.0, 56.0, 90.0, 22.0 ],
					"style" : "",
					"text" : "route compose"
				}

			}
, 			{
				"box" : 				{
					"id" : "obj-8",
					"maxclass" : "message",
					"numinlets" : 2,
					"numoutlets" : 1,
					"outlettype" : [ "" ],
					"patching_rect" : [ 171.0, 134.0, 504.0, 22.0 ],
					"style" : "",
					"text" : "open /Users/lol/Desktop/LOL-2018/Scraping-from-Gibberwocky/cliClickEXES/newCliclickTest"
				}

			}
, 			{
				"box" : 				{
					"id" : "obj-5",
					"maxclass" : "newobj",
					"numinlets" : 1,
					"numoutlets" : 2,
					"outlettype" : [ "", "bang" ],
					"patching_rect" : [ 171.0, 170.0, 35.0, 22.0 ],
					"style" : "",
					"text" : "shell"
				}

			}
, 			{
				"box" : 				{
					"id" : "obj-2",
					"maxclass" : "newobj",
					"numinlets" : 1,
					"numoutlets" : 1,
					"outlettype" : [ "" ],
					"patching_rect" : [ 171.0, 17.0, 99.0, 22.0 ],
					"style" : "",
					"text" : "udpreceive 8083"
				}

			}
, 			{
				"box" : 				{
					"id" : "obj-1",
					"maxclass" : "newobj",
					"numinlets" : 1,
					"numoutlets" : 5,
					"outlettype" : [ "", "signal", "signal", "signal", "signal" ],
					"patching_rect" : [ 17.0, 17.0, 77.0, 22.0 ],
					"style" : "",
					"text" : "gibberwocky"
				}

			}
, 			{
				"box" : 				{
					"attr" : "loop",
					"id" : "obj-24",
					"maxclass" : "attrui",
					"numinlets" : 1,
					"numoutlets" : 1,
					"outlettype" : [ "" ],
					"patching_rect" : [ 103.0, 206.0, 150.0, 22.0 ],
					"style" : ""
				}

			}
 ],
		"lines" : [ 			{
				"patchline" : 				{
					"destination" : [ "obj-13", 0 ],
					"source" : [ "obj-1", 0 ]
				}

			}
, 			{
				"patchline" : 				{
					"destination" : [ "obj-4", 1 ],
					"order" : 0,
					"source" : [ "obj-10", 0 ]
				}

			}
, 			{
				"patchline" : 				{
					"destination" : [ "obj-8", 0 ],
					"order" : 1,
					"source" : [ "obj-10", 0 ]
				}

			}
, 			{
				"patchline" : 				{
					"destination" : [ "obj-12", 1 ],
					"source" : [ "obj-11", 1 ]
				}

			}
, 			{
				"patchline" : 				{
					"destination" : [ "obj-12", 0 ],
					"source" : [ "obj-11", 0 ]
				}

			}
, 			{
				"patchline" : 				{
					"destination" : [ "obj-12", 0 ],
					"source" : [ "obj-15", 0 ]
				}

			}
, 			{
				"patchline" : 				{
					"destination" : [ "obj-7", 1 ],
					"order" : 0,
					"source" : [ "obj-16", 0 ]
				}

			}
, 			{
				"patchline" : 				{
					"destination" : [ "obj-7", 0 ],
					"order" : 1,
					"source" : [ "obj-16", 0 ]
				}

			}
, 			{
				"patchline" : 				{
					"destination" : [ "obj-19", 0 ],
					"source" : [ "obj-17", 0 ]
				}

			}
, 			{
				"patchline" : 				{
					"destination" : [ "obj-16", 0 ],
					"source" : [ "obj-19", 0 ]
				}

			}
, 			{
				"patchline" : 				{
					"destination" : [ "obj-13", 0 ],
					"order" : 1,
					"source" : [ "obj-2", 0 ]
				}

			}
, 			{
				"patchline" : 				{
					"destination" : [ "obj-9", 0 ],
					"order" : 0,
					"source" : [ "obj-2", 0 ]
				}

			}
, 			{
				"patchline" : 				{
					"destination" : [ "obj-16", 0 ],
					"source" : [ "obj-21", 0 ]
				}

			}
, 			{
				"patchline" : 				{
					"destination" : [ "obj-16", 0 ],
					"source" : [ "obj-23", 0 ]
				}

			}
, 			{
				"patchline" : 				{
					"destination" : [ "obj-16", 0 ],
					"source" : [ "obj-24", 0 ]
				}

			}
, 			{
				"patchline" : 				{
					"destination" : [ "obj-24", 0 ],
					"source" : [ "obj-26", 0 ]
				}

			}
, 			{
				"patchline" : 				{
					"destination" : [ "obj-11", 1 ],
					"source" : [ "obj-7", 1 ]
				}

			}
, 			{
				"patchline" : 				{
					"destination" : [ "obj-11", 0 ],
					"source" : [ "obj-7", 0 ]
				}

			}
, 			{
				"patchline" : 				{
					"destination" : [ "obj-5", 0 ],
					"source" : [ "obj-8", 0 ]
				}

			}
, 			{
				"patchline" : 				{
					"destination" : [ "obj-10", 0 ],
					"source" : [ "obj-9", 0 ]
				}

			}
 ],
		"parameters" : 		{
			"obj-7" : [ "amxd~", "amxd~", 0 ],
			"obj-11" : [ "live.gain~", "live.gain~", 0 ]
		}
,
		"dependency_cache" : [ 			{
				"name" : "gibberwocky.maxpat",
				"bootpath" : "~/Documents/Max 7/Packages/gibberwocky.max-master/patchers",
				"patcherrelativepath" : "../../../../Documents/Max 7/Packages/gibberwocky.max-master/patchers",
				"type" : "JSON",
				"implicit" : 1
			}
, 			{
				"name" : "gibbergen3.maxpat",
				"bootpath" : "~/Documents/Max 7/Packages/gibberwocky.max-master/patchers",
				"patcherrelativepath" : "../../../../Documents/Max 7/Packages/gibberwocky.max-master/patchers",
				"type" : "JSON",
				"implicit" : 1
			}
, 			{
				"name" : "gibbergen2.maxpat",
				"bootpath" : "~/Documents/Max 7/Packages/gibberwocky.max-master/patchers",
				"patcherrelativepath" : "../../../../Documents/Max 7/Packages/gibberwocky.max-master/patchers",
				"type" : "JSON",
				"implicit" : 1
			}
, 			{
				"name" : "gibbergen1.maxpat",
				"bootpath" : "~/Documents/Max 7/Packages/gibberwocky.max-master/patchers",
				"patcherrelativepath" : "../../../../Documents/Max 7/Packages/gibberwocky.max-master/patchers",
				"type" : "JSON",
				"implicit" : 1
			}
, 			{
				"name" : "gibbergen0.maxpat",
				"bootpath" : "~/Documents/Max 7/Packages/gibberwocky.max-master/patchers",
				"patcherrelativepath" : "../../../../Documents/Max 7/Packages/gibberwocky.max-master/patchers",
				"type" : "JSON",
				"implicit" : 1
			}
, 			{
				"name" : "gibberwocky_main.js",
				"bootpath" : "~/Documents/Max 7/Packages/gibberwocky.max-master/javascript",
				"patcherrelativepath" : "../../../../Documents/Max 7/Packages/gibberwocky.max-master/javascript",
				"type" : "TEXT",
				"implicit" : 1
			}
, 			{
				"name" : "Granular-to-go.amxd.maxsnap",
				"bootpath" : "~/Documents/Max 7/Snapshots",
				"patcherrelativepath" : "../../../../Documents/Max 7/Snapshots",
				"type" : "mx@s",
				"implicit" : 1
			}
, 			{
				"name" : "Granular-to-go.amxd",
				"type" : "JSON",
				"implicit" : 1
			}
, 			{
				"name" : "granular.Globule~.maxpat",
				"type" : "JSON",
				"implicit" : 1
			}
, 			{
				"name" : "granular.RandPulse~.maxpat",
				"type" : "JSON",
				"implicit" : 1
			}
, 			{
				"name" : "granular.kitSynthEnv~.maxpat",
				"type" : "JSON",
				"implicit" : 1
			}
, 			{
				"name" : "granular.Globber~.maxpat",
				"type" : "JSON",
				"implicit" : 1
			}
, 			{
				"name" : "pluggo.randomPreset.maxpat",
				"type" : "JSON",
				"implicit" : 1
			}
, 			{
				"name" : "pluggo.dryWet2~.maxpat",
				"type" : "JSON",
				"implicit" : 1
			}
, 			{
				"name" : "ws.mxo",
				"type" : "iLaX"
			}
, 			{
				"name" : "shell.mxo",
				"type" : "iLaX"
			}
 ],
		"autosave" : 0
	}

}
